# xmcd
#
# Track frame offsets:
#	151
#	17096
#	33200
#	56406
#	76288
#	99089
#	119551
#	135613
#	147510
#	162777
#	182662
#	199959
#	220383
#	239406
#	263983
#
# Disc length: 3789 seconds
#
# Revision: 1
# Processed by: cddbd v1.5.1PL2 Copyright (c) Steve Scherf et al.
# Submitted via: audiograbber 1.83.01
#
DISCID=d20ecb0f
DTITLE=Errol Linton's Blues Vibe - Vibing It
DYEAR=1998
DGENRE=
TTITLE0=Packin' my bags
TTITLE1=Shake for me
TTITLE2=Howlin' for my darling
TTITLE3=Wine, whiskey and women
TTITLE4=You know I love you
TTITLE5=Walking with Errol
TTITLE6=Love is true
TTITLE7=Love is strong
TTITLE8=Got me running
TTITLE9=Live my life
TTITLE10=City blues/Eisenhower blues
TTITLE11=Champagne
TTITLE12=Shake 'em on down
TTITLE13=She's gone
TTITLE14=Honey dripper
EXTD=
EXTT0=
EXTT1=
EXTT2=
EXTT3=
EXTT4=
EXTT5=
EXTT6=
EXTT7=
EXTT8=
EXTT9=
EXTT10=
EXTT11=
EXTT12=
EXTT13=
EXTT14=
PLAYORDER=
